# AST/ASF file generated using VICON BodyLanguage
# -----------------------------------------------
:version 1.10
:name VICON
:units
  mass 1.0
  length 0.45
  angle deg
:documentation
   .ast/.asf automatically generated from VICON data using
   VICON BodyBuilder and BodyLanguage model FoxedUp or BRILLIANT.MOD
:root
   order TX TY TZ RX RY RZ
   axis XYZ
   position 0 0 0  
   orientation 0 0 0 
:bonedata
  begin
     id 1 
     name lhipjoint
     direction 0.645893 -0.654526 0.392961 
     length 2.38111 
     axis 0 0 0  XYZ
  end
  begin
     id 2 
     name lfemur
     direction 0.34202 -0.939693 0  
     length 6.6822  
     axis 0 0 20  XYZ
    dof rx ry rz
    limits (-160.0 20.0)
           (-70.0 70.0)
           (-60.0 70.0)
  end
  begin
     id 3 
     name ltibia
     direction 0.34202 -0.939693 0   
     length 6.93904   
     axis 0 0 20   XYZ
    dof rx
    limits (-10.0 170.0)
  end
  begin
     id 4 
     name lfoot
     direction 0.0694967 -0.190941 0.979138   
     length 2.13616   
     axis -90 7.62852e-016 20   XYZ
    dof rx rz
    limits (-45.0 90.0)
           (-70.0 20.0)
  end
  begin
     id 5 
     name ltoes
     direction 1.535e-011 -4.2202e-011 1   
     length 1.07536   
     axis -90 7.62852e-016 20   XYZ
    dof rx
    limits (-90.0 20.0)
  end
  begin
     id 6 
     name rhipjoint
     direction -0.700219 -0.612087 0.367481   
     length 2.54621  
     axis 0 0 0  XYZ 
  end
  begin
     id 7 
     name rfemur
     direction -0.34202 -0.939693 0   
     length 6.55353   
     axis 0 0 -20   XYZ
    dof rx ry rz
    limits (-160.0 20.0)
           (-70.0 70.0)
           (-70.0 60.0)
  end
  begin
     id 8 
     name rtibia
     direction -0.34202 -0.939693 0   
     length 6.8736   
     axis 0 0 -20   XYZ
    dof rx
    limits (-10.0 170.0)
 end
 begin
     id 9 
     name rfoot
     direction -0.0679995 -0.186827 0.980037   
     length 2.1218  
     axis -90 -7.62852e-016 -20   XYZ
    dof rx rz
    limits (-45.0 90.0)
           (-20.0 70.0)
  end
  begin
     id 10 
     name rtoes
     direction -1.53589e-011 -4.21772e-011 1   
     length 1.06864   
     axis -90 -7.62852e-016 -20   XYZ
    dof rx
    limits (-90.0 20.0)
  end
  begin
     id 11 
     name lowerback
     direction -0.0416607 0.996347 -0.0745409   
     length 2.12205   
     axis 0 0 0   XYZ
    dof rx ry rz
    limits (-20.0 45.0)
           (-30.0 30.0)
           (-30.0 30.0)
  end
  begin
     id 12 
     name upperback
     direction -0.000153993 0.999276 -0.0380568   
     length 2.12759   
     axis 0 0 0   XYZ
    dof rx ry rz
    limits (-20.0 45.0)
           (-30.0 30.0)
           (-30.0 30.0)
  end
  begin
     id 13 
     name thorax
     direction 0.0187671 0.999821 -0.00241421   
     length 2.13704   
     axis 0 0 0   XYZ
    dof rx ry rz
    limits (-20.0 45.0)
           (-30.0 30.0)
           (-30.0 30.0)
  end
  begin
     id 14 
     name lowerneck
     direction 0.0268157 0.964865 0.261374   
     length 1.65253   
     axis 0 0 0   XYZ
    dof rx ry rz
    limits (-20.0 45.0)
           (-30.0 30.0)
           (-30.0 30.0)
  end
  begin
     id 15 
     name upperneck
     direction 0.00263774 0.939908 -0.341418   
     length 1.72375   
     axis 0 0 0   XYZ
    dof rx ry rz
    limits (-20.0 45.0)
           (-30.0 30.0)
           (-30.0 30.0)
  end
  begin
     id 16
     name head
     direction -0.00526001 0.989001 -0.147818  
     length 1.74878  
     axis 0 0 0   XYZ
    dof rx ry rz
    limits (-20.0 45.0)
           (-30.0 30.0)
           (-30.0 30.0)
  end
  begin
     id 17 
     name lclavicle
     direction 0.881214 0.461162 -0.103884  
     length 3.25108  
     axis 0 0 0   XYZ
    dof ry rz
    limits (-20.0 10.0)
           (0.0 20.0)
  end
  begin
     id 18 
     name lhumerus
     direction 1 -4.4899e-011 3.38092e-027   
     length 4.87408   
     axis 180 -30 -90   XYZ
    dof rx ry rz
    limits (-60.0 90.0)
           (-90.0 90.0)
           (-90.0 90.0)
  end
  begin
     id 19
     name lradius
     direction 1 -4.48931e-011 9.96288e-027   
     length 2.76729   
     axis 180 -30 -90   XYZ
    dof rx
    limits (-10.0 170.0)
  end
  begin
     id 20
     name lwrist
     direction 1 -4.4896e-011 1.50617e-026   
     length 1.38364   
     axis -9.31234e-015 90 90   XYZ
    dof ry
    limits (-180.0 0.0)
 end
  begin
     id 21 
     name lhand
     direction 1 -4.49038e-011 3.01286e-026   
     length 0.98922   
     axis -1.92217e-014 90 90   XYZ
    dof rx rz
    limits (-90.0 90.0)
           (-45.0 45.0)
  end
  begin
     id 22 
     name lfingers
     direction 1 -4.49051e-011 6.02588e-026   
     length 0.797535   
     axis -3.84436e-014 90 90   XYZ
    dof rx
    limits (0.0 90.0)
  end
  begin
     id 23
     name lthumb
     direction 0.707107 -6.34901e-011 0.707107   
     length 1.14511   
     axis -90 45 2.19363e-014   XYZ
    dof rx rz
    limits (-45.0 45.0)
           (-45.0 45.0)
  end
  begin
     id 24 
     name rclavicle
     direction -0.893894 0.441652 -0.0767889   
     length 3.29361  
     axis 0 0 0   XYZ 
    dof ry rz
    limits (-10.0 20.0)
           (-20.0 0.0)
  end
  begin
     id 25 
     name rhumerus
     direction -1 -4.48945e-011 8.0491e-028  
     length 4.71404   
     axis 180 30 90   XYZ
    dof rx ry rz
    limits (-90.0 60.0)
           (-90.0 90.0)
           (-90.0 90.0)
  end
  begin
     id 26 
     name rradius
     direction -1 -4.48986e-011 9.27795e-027   
     length 2.83468   
     axis 180 30 90   XYZ
    dof rx
    limits (-10.0 170.0)
  end
  begin
     id 27 
     name rwrist
     direction -1 -4.49029e-011 1.5064e-026   
     length 1.41734   
     axis -9.31234e-015 -90 -90   XYZ
    dof ry
    limits (-180.0 0.0)
  end
  begin
     id 28
     name rhand
     direction -1 -4.48857e-011 3.01165e-026   
     length 0.868195   
     axis -1.92217e-014 -90 -90   XYZ
    dof rx rz
    limits (-90.0 90.0)
           (-45.0 45.0)
  end
  begin
     id 29
     name rfingers
     direction -1 -4.49048e-011 6.02585e-026   
     length 0.699961   
     axis -3.84436e-014 -90 -90   XYZ
    dof rx
    limits (0.0 90.0)
  end
  begin
     id 30
     name rthumb
     direction -0.707107 -6.34854e-011 0.707107   
     length 1.00501   
     axis -90 -45 -2.19363e-014   XYZ
    dof rx rz
    limits (-45.0 45.0)
           (-45.0 45.0)
  end
:hierarchy
  begin
    root lhipjoint rhipjoint lowerback
    lhipjoint lfemur
    lfemur ltibia
    ltibia lfoot
    lfoot ltoes
    rhipjoint rfemur
    rfemur rtibia
    rtibia rfoot
    rfoot rtoes
    lowerback upperback
    upperback thorax
    thorax lowerneck lclavicle rclavicle
    lowerneck upperneck
    upperneck head
    lclavicle lhumerus
    lhumerus lradius
    lradius lwrist
    lwrist lhand lthumb
    lhand lfingers
    rclavicle rhumerus
    rhumerus rradius
    rradius rwrist
    rwrist rhand rthumb
    rhand rfingers
  end

#!OML:ASF H:\ManfredObstacles\Project 1\Capture day 2\Session 1\male.ASF
:FULLY-SPECIFIED
:DEGREES
110
root 1.53643 15.8664 9.57409 -165.24 0.842889 -179.248
lowerback 0.819435 1.49046 -0.762082
upperback 1.89511 2.0363 -0.311308
thorax 1.46644 1.02789 0.117842
lowerneck -35.1028 0.723078 0.549495
upperneck 40.7584 -2.27165 0.546434
head 24.1113 -1.33788 -0.814839
rclavicle 3.73964e-014 -8.24956e-015
rhumerus -32.3925 9.36765 -89.3644
rradius 78.8615
rwrist 9.67178
rhand -7.41427 -5.84792
rfingers 7.12502
rthumb 18.4724 -34.9908
lclavicle 3.73964e-014 -8.24956e-015
lhumerus -55.3689 -24.545 92.2292
lradius 78.8143
lwrist -19.9785
lhand -9.53452 6.94369
lfingers 7.12502
lthumb 16.4318 36.2678
rfemur -16.7483 4.96493 25.8105
rtibia 39.0607
rfoot -4.45931 -17.4576
rtoes -27.9545
lfemur -34.7864 -1.54191 -19.6901
ltibia 75.9277
lfoot 10.5406 19.8312
ltoes -6.38799
111
root 1.53558 15.9509 9.32516 -165.089 0.880789 -179.235
lowerback 0.734485 1.83997 -0.745275
upperback 1.77792 2.49924 -0.422838
thorax 1.39633 1.25889 -0.00319662
lowerneck -35.0756 0.50433 0.450529
upperneck 40.7738 -2.63864 0.697724
head 24.1232 -1.45496 -0.820476
rclavicle -1.90585e-014 8.19987e-015
rhumerus -32.1326 10.0395 -89.5448
rradius 80.3965
rwrist 9.45871
rhand -7.78491 -5.66656
rfingers 7.12502
rthumb 18.1158 -34.8429
lclavicle -1.90585e-014 8.19987e-015
lhumerus -56.5728 -24.9499 92.2586
lradius 79.9744
lwrist -19.6759
lhand -9.81155 6.78559
lfingers 7.12502
lthumb 16.1651 36.1315
rfemur -15.61 4.95156 25.8432
rtibia 37.9631
rfoot -2.78455 -16.7144
rtoes -28.3327
lfemur -35.9911 -1.75198 -19.5631
ltibia 74.5097
lfoot 10.2964 20.2549
ltoes -6.41026
112
root 1.53444 16.0395 9.07174 -164.929 0.889004 -179.252
lowerback 0.616062 2.16267 -0.765391
upperback 1.6703 2.92761 -0.542959
thorax 1.35566 1.47223 -0.1106
lowerneck -35.0766 0.298012 0.385592
upperneck 40.7613 -2.99376 0.844178
head 24.1208 -1.55999 -0.830151
rclavicle -2.8128e-014 -1.98785e-015
rhumerus -31.8497 10.7168 -89.7121
rradius 81.7903
rwrist 9.29517
rhand -8.09423 -5.54449
rfingers 7.12502
rthumb 17.8182 -34.7482
lclavicle -2.8128e-014 -1.98785e-015
lhumerus -57.7045 -25.2867 92.2375
lradius 81.1243
lwrist -19.3997
lhand -10.0562 6.62736
lfingers 7.12502
lthumb 15.9295 35.9923
rfemur -14.4753 4.90585 25.8466
rtibia 36.8022
rfoot -0.987293 -15.9702
rtoes -28.5537
lfemur -37.0605 -2.00629 -19.4439
ltibia 72.7903
lfoot 10.0782 20.5302
ltoes -6.43482
113
root 1.5331 16.1309 8.81374 -164.757 0.879426 -179.304
lowerback 0.471913 2.46365 -0.823752
upperback 1.55536 3.32784 -0.679317
thorax 1.3223 1.67121 -0.211679
lowerneck -35.115 0.0932998 0.334069
upperneck 40.7404 -3.35387 0.996934
head 24.1263 -1.66186 -0.840263
rclavicle -4.74226e-014 -5.01931e-015
rhumerus -31.5941 11.3506 -89.8674
rradius 83.0576
rwrist 9.34043
rhand -8.32275 -5.4104
rfingers 7.12502
rthumb 17.5983 -34.6339
lclavicle -4.74226e-014 -5.01931e-015
lhumerus -58.8121 -25.5863 92.191
lradius 82.2596
lwrist -19.0961
lhand -10.3292 6.44347
lfingers 7.12502
lthumb 15.6666 35.8292
rfemur -13.3436 4.83882 25.8138
rtibia 35.5748
rfoot 0.938606 -15.2466
rtoes -28.6263
lfemur -37.9941 -2.28908 -19.3406
ltibia 70.7854
lfoot 9.893 20.6417
ltoes -6.48116
114
root 1.53126 16.2239 8.55104 -164.588 0.836257 -179.389
lowerback 0.314957 2.73196 -0.91539
upperback 1.44062 3.68579 -0.825152
thorax 1.296 1.849 -0.302641
lowerneck -35.201 -0.114027 0.236366
upperneck 40.7449 -3.72277 1.20098
head 24.1796 -1.76758 -0.817566
rclavicle 2.0276e-014 0
rhumerus -31.3577 11.9868 -90.0176
rradius 84.1975
rwrist 9.45643
rhand -8.49924 -5.25796
rfingers 7.12502
rthumb 17.4284 -34.4966
lclavicle 2.0276e-014 0
lhumerus -59.8863 -25.8384 92.1203
lradius 83.3863
lwrist -18.7918
lhand -10.6182 6.27917
lfingers 7.12502
lthumb 15.3882 35.6865
rfemur -12.189 4.74079 25.7459
rtibia 34.2771
rfoot 2.99779 -14.5567
rtoes -28.3378
lfemur -38.7783 -2.61323 -19.25
ltibia 68.5111
lfoot 9.70647 20.5751
ltoes -6.50415
115
root 1.52948 16.3166 8.2839 -164.413 0.783528 -179.508
lowerback 0.135971 2.97972 -1.0505
upperback 1.31154 4.01761 -0.983067
thorax 1.26596 2.01359 -0.380364
lowerneck -35.2645 -0.332665 0.0843856
upperneck 40.754 -4.10708 1.45552
head 24.2374 -1.88271 -0.761524
rclavicle -6.28657e-015 7.95139e-015
rhumerus -31.1695 12.6134 -90.1711
rradius 85.2383
rwrist 9.53786
rhand -8.62367 -5.10407
rfingers 7.12502
rthumb 17.3087 -34.3533
lclavicle -6.28657e-015 7.95139e-015
lhumerus -60.9514 -26.0668 92.0488
lradius 84.4971
lwrist -18.4899
lhand -10.9405 6.16131
lfingers 7.12502
lthumb 15.0778 35.5922
rfemur -11.02 4.64449 25.6367
rtibia 32.9202
rfoot 5.10539 -13.9385
rtoes -27.8809
lfemur -39.4266 -2.96481 -19.1756
ltibia 65.9924
lfoot 9.5589 20.3033
ltoes -6.54888
116
root 1.52759 16.4078 8.01222 -164.234 0.702245 -179.668
lowerback -0.0609311 3.2001 -1.21775
upperback 1.17325 4.31509 -1.16064
thorax 1.23595 2.16136 -0.459009
lowerneck -35.3202 -0.53906 -0.0689052
upperneck 40.7757 -4.48648 1.72413
head 24.3098 -1.99596 -0.696897
rclavicle -1.0138e-014 -4.02539e-015
rhumerus -31.037 13.2275 -90.3494
rradius 86.204
rwrist 9.50062
rhand -8.73765 -4.92296
rfingers 7.12502
rthumb 17.199 -34.1818
lclavicle -1.0138e-014 -4.02539e-015
lhumerus -62.0041 -26.2987 91.9756
lradius 85.5893
lwrist -18.1654
lhand -11.3257 6.07709
lfingers 7.12502
lthumb 14.7067 35.5354
rfemur -9.82817 4.53429 25.4827
rtibia 31.5183
rfoot 7.26089 -13.3859
rtoes -27.2783
lfemur -39.9449 -3.36051 -19.1217
ltibia 63.256
lfoot 9.43247 19.8209
ltoes -6.616
117
root 1.52613 16.4954 7.73678 -164.045 0.614544 -179.867
lowerback -0.286145 3.40283 -1.4286
upperback 1.02371 4.59207 -1.35626
thorax 1.20849 2.29929 -0.529905
lowerneck -35.3197 -0.755507 -0.278979
upperneck 40.8066 -4.88595 2.04706
head 24.3824 -2.12216 -0.597607
rclavicle -3.34207e-014 1.20762e-014
rhumerus -30.9579 13.836 -90.5424
rradius 87.1012
rwrist 9.40523
rhand -8.85012 -4.75544
rfingers 7.12502
rthumb 17.0907 -34.0237
lclavicle -3.34207e-014 1.20762e-014
lhumerus -63.0468 -26.5413 91.9041
lradius 86.6556
lwrist -17.8974
lhand -11.7276 6.06685
lfingers 7.12502
lthumb 14.3194 35.5531
rfemur -8.62852 4.44538 25.2797
rtibia 30.1
rfoot 9.39104 -12.9271
rtoes -26.5447
lfemur -40.3452 -3.79647 -19.0878
ltibia 60.3366
lfoot 9.33143 19.1426
ltoes -6.78304
118
root 1.52463 16.578 7.45801 -163.852 0.506363 -180.109
lowerback -0.548523 3.57637 -1.67747
upperback 0.878167 4.83471 -1.56379
thorax 1.20376 2.42062 -0.588776
lowerneck -35.2445 -0.96686 -0.520818
upperneck 40.8331 -5.27687 2.39381
head 24.4326 -2.25178 -0.475868
rclavicle -1.02374e-014 1.63997e-014
rhumerus -30.9259 14.4511 -90.7533
rradius 87.9775
rwrist 9.16186
rhand -8.94146 -4.62921
rfingers 7.12502
rthumb 17.0028 -33.9051
lclavicle -1.02374e-014 1.63997e-014
lhumerus -64.0565 -26.7846 91.8284
lradius 87.709
lwrist -17.65
lhand -12.1398 6.12812
lfingers 7.12502
lthumb 13.9222 35.642
rfemur -7.41921 4.36496 25.034
rtibia 28.6937
rfoot 11.4789 -12.5547
rtoes -25.6918
lfemur -40.6395 -4.29192 -19.0737
ltibia 57.2733
lfoot 9.22872 18.3105
ltoes -6.93202
119
root 1.52292 16.6541 7.17627 -163.659 0.392074 -180.382
lowerback -0.842209 3.73048 -1.9544
upperback 0.736484 5.05663 -1.78144
thorax 1.21876 2.53235 -0.639445
lowerneck -35.1274 -1.17898 -0.769838
upperneck 40.8354 -5.66213 2.74263
head 24.451 -2.38194 -0.348792
rclavicle 1.4064e-014 -2.15681e-014
rhumerus -30.935 15.0629 -90.9676
rradius 88.8194
rwrist 8.92256
rhand -9.05013 -4.51841
rfingers 7.12502
rthumb 16.8982 -33.8032
lclavicle 1.4064e-014 -2.15681e-014
lhumerus -65.0487 -27.0463 91.7621
lradius 88.7608
lwrist -17.4109
lhand -12.5399 6.2498
lfingers 7.12502
lthumb 13.5366 35.7898
rfemur -6.2159 4.30371 24.7566
rtibia 27.3365
rfoot 13.5179 -12.2526
rtoes -24.6743
lfemur -40.8334 -4.8386 -19.0706
ltibia 54.1102
lfoot 9.09517 17.3829
ltoes -7.09462
120
root 1.5208 16.7229 6.89252 -163.465 0.272357 -180.675
lowerback -1.17495 3.86333 -2.24815
upperback 0.607752 5.25629 -1.99959
thorax 1.26712 2.63352 -0.677275
lowerneck -34.9726 -1.38016 -1.00558
upperneck 40.8158 -6.02496 3.07331
head 24.4368 -2.50604 -0.2268
rclavicle 2.79789e-014 -2.52457e-014
rhumerus -30.9847 15.6842 -91.1763
rradius 89.6683
rwrist 8.68595
rhand -9.12974 -4.43665
rfingers 7.12502
rthumb 16.8215 -33.728
lclavicle 2.79789e-014 -2.52457e-014
lhumerus -65.9912 -27.312 91.6923
lradius 89.8011
lwrist -17.2156
lhand -12.9294 6.39434
lfingers 7.12502
lthumb 13.1612 35.959
rfemur -5.03422 4.27069 24.4665
rtibia 26.0611
rfoot 15.4791 -12.0461
rtoes -23.4746
lfemur -40.9384 -5.43109 -19.0637
ltibia 50.8929
lfoot 8.92595 16.4074
ltoes -7.30497
121
root 1.5183 16.7834 6.60731 -163.278 0.157019 -180.973
lowerback -1.52745 3.98403 -2.55027
upperback 0.482887 5.44492 -2.2133
thorax 1.32888 2.72976 -0.703433
lowerneck -34.8237 -1.5651 -1.20941
upperneck 40.7946 -6.35788 3.35973
head 24.4207 -2.62063 -0.127009
rclavicle -1.1281e-014 -2.78299e-015
rhumerus -31.1039 16.2798 -91.388
rradius 90.5439
rwrist 8.525
rhand -9.2175 -4.38451
rfingers 7.12502
rthumb 16.7371 -33.683
lclavicle -1.1281e-014 -2.78299e-015
lhumerus -66.8966 -27.6016 91.6448
lradius 90.808
lwrist -17.0399
lhand -13.3438 6.5256
lfingers 7.12502
lthumb 12.7618 36.1156
rfemur -3.89599 4.25568 24.1796
rtibia 24.9024
rfoot 17.3515 -11.9165
rtoes -22.2964
lfemur -40.9596 -6.05354 -19.0428
ltibia 47.6717
lfoot 8.73658 15.4279
ltoes -7.56139
122
root 1.51503 16.8352 6.32163 -163.105 0.0451578 -181.267
lowerback -1.87446 4.16783 -2.85004
upperback 0.36602 5.60397 -2.41736
thorax 1.39219 2.76121 -0.72259
lowerneck -34.6996 -1.7395 -1.3948
upperneck 40.7675 -6.65894 3.60683
head 24.405 -2.72532 -0.0432985
rclavicle -9.93923e-015 4.17448e-014
rhumerus -31.2789 16.8627 -91.599
rradius 91.444
rwrist 8.42348
rhand -9.30961 -4.32485
rfingers 7.12502
rthumb 16.6484 -33.6309
lclavicle -9.93923e-015 4.17448e-014
lhumerus -67.7495 -27.9015 91.6113
lradius 91.788
lwrist -16.8899
lhand -13.7564 6.63157
lfingers 7.12502
lthumb 12.364 36.246
rfemur -2.81355 4.24082 23.9058
rtibia 23.886
rfoot 19.177 -11.8616
rtoes -20.8797
lfemur -40.9039 -6.69825 -19.0019
ltibia 44.5009
lfoot 8.53649 14.4839
ltoes -7.94187
